<?xml version="1.0" encoding="UTF-8"?>
<svg width="24px" height="24px" viewBox="0 0 24 24" version="1.1" xmlns="http://www.w3.org/2000/svg" xmlns:xlink="http://www.w3.org/1999/xlink">
    <title>Tools and Objects/List-View</title>
    <g id="Tools-and-Objects/List-View" stroke="none" stroke-width="1" fill="none" fill-rule="evenodd">
        <path d="M3.86956522,16.7847826 L3.86956522,19.6543478 L1,19.6543478 L1,16.7847826 L3.86956522,16.7847826 Z M23,16.7847826 L20.1241756,19.6543478 L6.73913043,19.6543478 L6.73913043,16.7847826 L23,16.7847826 Z M3.91547826,10.5224348 L3.91547826,13.4493913 L1,13.4493913 L1,10.5224348 L3.91547826,10.5224348 Z M20.1304348,10.5673913 L17.2608696,13.4369565 L6.77452174,13.4369565 L6.77452174,10.5673913 L20.1304348,10.5673913 Z M3.86956522,4.35 L3.86956522,7.21956522 L1,7.21956522 L1,4.35 L3.86956522,4.35 Z M23,4.35 L20.1241756,7.21956522 L6.73913043,7.21956522 L6.73913043,4.35 L23,4.35 Z" id="🎨-Change-color-here" fill="#1464A5"></path>
    </g>
</svg>