<svg xmlns="http://www.w3.org/2000/svg" viewBox="0 0 127.79 127.79">
  <defs>
    <style>
      .efl--core {
        fill: #2f33b0;
        animation: fadeAnim 2s infinite alternate-reverse ease;
        transform-origin: center;
      }
      .efl--circle {
        fill: #2f33b0;
        animation: rotateAnim 6s infinite linear;
        transform-origin: center;
      }
      .efl--rect {
        fill: #ff6364;
        animation: rotateAnim 6s infinite linear;
        transform-origin: 50%;
      }
      @keyframes rotateAnim {
        from {
          transform: rotate(0deg);
        }
        to {
          transform: rotate(360deg);
        }
      }
      @keyframes fadeAnim {
        from {
          opacity: .75;
          transform: scale(.97);
        }
        to {
          opacity: 1;
          transform: scale(1.03);
        }
      }
    </style>
  </defs>
  <g>
    <g style="transform: scale(.7) translate(20%, 20%)">
      <path class="efl--core" d="M36.87,36.88A38.2,38.2,0,0,0,89.08,92.6h0l.06-.06c.33-.29.65-.59,1-.89l.48-.46.31-.29.29-.31c.46-.47.91-1,1.35-1.45l.33-.37c.5-.59,1-1.19,1.45-1.8l.5-.69c.31-.42.6-.84.89-1.28.18-.26.36-.52.53-.79.36-.58.71-1.17,1-1.77.2-.36.39-.73.58-1.1l.27-.52.15-.33c.28-.59.55-1.18.81-1.79l.33-.82c.21-.53.41-1.07.59-1.61.13-.38.26-.77.38-1.16s.26-.85.37-1.29.27-1,.38-1.54c0-.16.09-.32.13-.48h0a38.12,38.12,0,0,0,.58-12.39L84.49,62a20.47,20.47,0,0,1-.5,6.85c-.06.24-.13.48-.2.72s-.14.5-.22.75-.1.27-.14.41c-.12.34-.24.67-.38,1a1.67,1.67,0,0,1-.08.2c-.16.38-.33.76-.52,1.14l-.09.18a23.09,23.09,0,0,1-1.46,2.46l-.37.51c-.11.16-.23.31-.35.46s-.33.42-.51.62a3.65,  3.65,0,0,1-.31.36c-.22.25-.44.49-.68.73a2.39,2.39,0,0,1-.22.23c-.33.33-.67.64-1,1l-.27.22A20.67,20.67,0,0,1,56.1,83.07l-1.49-.6L95,42.11a29.61,29.61,0,0,0-4.07-5.23A38.24,38.24,0,0,0,36.87,36.88Z"/>
      <path class="efl--circle" d="M63.89,0A63.84,63.84,0,0,0,13.7,103.36l3-4.35A58.93,58.93,0,1,1,32,113.34l-3.18,3.91A63.88,63.88,0,1,0,63.89,0Z"/>
      <rect class="efl--rect" x="17.84" y="103.59" width="16.17" height="16.17" transform="translate(67.55 4.85) rotate(34.36)"/>
    </g>
  </g>
</svg>
