<?xml version="1.0" encoding="utf-8"?>
<!-- Generator: Adobe Illustrator 25.0.0, SVG Export Plug-In . SVG Version: 6.00 Build 0)  -->
<svg version="1.1" id="Layer_1" xmlns="http://www.w3.org/2000/svg" xmlns:xlink="http://www.w3.org/1999/xlink" x="0px" y="0px"
	 width="24px" height="23px" viewBox="0 0 24 23" xml:space="preserve">
<g id="_x30_3_x5F_Footer">
	<path id="Combined-Shape-Copy-2" fill-rule="evenodd" clip-rule="evenodd" fill="#49A5E6" d="M12,0.4c6.1,0,11.1,5,11.1,11.1c0,6.1-5,11.1-11.1,11.1c-6.1,0-11.1-5-11.1-11.1
		C0.9,5.4,5.9,0.4,12,0.4z M12.2,4.6h-0.5c-0.1,0-0.2,0-0.2,0l-0.4,0c-0.7,0-1,0-1.4,0l-0.3,0c-0.1,0-0.2,0-0.4,0
		c-0.7,0-1.2,0.2-1.7,0.3C7,5.1,6.6,5.4,6.2,5.7C5.9,6.1,5.6,6.5,5.4,7C5.3,7.4,5.2,7.9,5.1,8.6c0,0.1,0,0.3,0,0.4l0,0.3
		c0,0.3,0,0.7,0,1.4l0,0.4c0,0.1,0,0.3,0,0.5l0,0.2c0,0.1,0,0.2,0,0.2l0,0.4c0,0.7,0,1.1,0,1.4l0,0.2c0,0.1,0,0.2,0,0.4
		c0,0.7,0.2,1.2,0.3,1.7c0.2,0.5,0.4,0.8,0.8,1.2c0.4,0.4,0.8,0.6,1.2,0.8c0.4,0.2,0.9,0.3,1.7,0.3c0.1,0,0.3,0,0.4,0l0.3,0
		c0.3,0,0.7,0,1.4,0l0.6,0l0,0l0.2,0c0.1,0,0.2,0,0.2,0l0.6,0c0.7,0,1.1,0,1.4,0l0.2,0c0.1,0,0.2,0,0.4,0c0.7,0,1.2-0.2,1.7-0.3
		c0.5-0.2,0.8-0.4,1.2-0.8c0.4-0.4,0.6-0.8,0.8-1.2c0.2-0.4,0.3-0.9,0.3-1.7c0-0.1,0-0.3,0-0.4l0-0.2c0-0.3,0-0.7,0-1.4l0-0.6l0,0
		l0-0.2c0-0.1,0-0.2,0-0.2l0-0.6c0-0.7,0-1,0-1.4l0-0.3c0-0.1,0-0.2,0-0.4c0-0.7-0.2-1.2-0.3-1.7c-0.2-0.5-0.4-0.8-0.8-1.2
		c-0.4-0.4-0.8-0.6-1.2-0.8c-0.4-0.2-0.9-0.3-1.7-0.3c-0.1,0-0.3,0-0.4,0l-0.2,0c-0.3,0-0.7,0-1.4,0l-0.4,0c-0.1,0-0.3,0-0.5,0
		L12.2,4.6z M12.7,5.8c1.2,0,1.5,0,2.1,0c0.7,0,1,0.1,1.3,0.2c0.3,0.1,0.6,0.3,0.8,0.5c0.2,0.2,0.4,0.5,0.5,0.8
		c0.1,0.2,0.2,0.6,0.2,1.3c0,0.1,0,0.3,0,0.4l0,0.2c0,0.4,0,0.7,0,1.5v1.4c0,1.2,0,1.5,0,2.1c0,0.7-0.1,1-0.2,1.3
		c-0.1,0.3-0.3,0.6-0.5,0.8c-0.2,0.2-0.5,0.4-0.8,0.5c-0.2,0.1-0.6,0.2-1.3,0.2c-0.2,0-0.3,0-0.5,0l-0.2,0c-0.3,0-0.7,0-1.5,0h-1.4
		c-0.8,0-1.2,0-1.5,0l-0.2,0c-0.1,0-0.2,0-0.4,0c-0.7,0-1-0.1-1.3-0.2c-0.3-0.1-0.6-0.3-0.8-0.5c-0.2-0.2-0.4-0.5-0.5-0.8
		c-0.1-0.2-0.2-0.6-0.2-1.3c0-0.1,0-0.2,0-0.3l0-0.2c0-0.4,0-0.8,0-1.6v-1.4c0-0.8,0-1.2,0-1.5l0-0.2c0-0.1,0-0.2,0-0.4
		c0-0.7,0.1-1,0.2-1.3c0.1-0.3,0.3-0.6,0.5-0.8c0.2-0.2,0.5-0.4,0.8-0.5C8.2,6,8.5,5.9,9.2,5.9c0.6,0,0.9,0,2.1,0H12.7z M12,7.9
		c-2,0-3.6,1.6-3.6,3.6c0,2,1.6,3.6,3.6,3.6s3.6-1.6,3.6-3.6C15.6,9.5,14,7.9,12,7.9z M15.7,7c-0.5,0-0.8,0.4-0.8,0.8
		c0,0.5,0.4,0.8,0.8,0.8c0.5,0,0.8-0.4,0.8-0.8C16.5,7.3,16.2,7,15.7,7z"/>
</g>
</svg>
