<svg id="Contenido" xmlns="http://www.w3.org/2000/svg" xmlns:xlink="http://www.w3.org/1999/xlink" viewBox="0 0 600 600"><defs><style>.cls-1{fill:url(#Degradado_sin_nombre_42);}.cls-2{fill:#072146;}.cls-3{fill:#02a5a5;}.cls-4{fill:#028484;}.cls-5{fill:#56e2de;}.cls-6{fill:#2dcccd;}.cls-7{fill:#1464a5;}</style><linearGradient id="Degradado_sin_nombre_42" x1="287.6" y1="168.13" x2="458.23" y2="503.01" gradientUnits="userSpaceOnUse"><stop offset="0" stop-color="#192647" stop-opacity="0.5"/><stop offset="1" stop-color="#192647" stop-opacity="0"/></linearGradient></defs><title>seguro</title><path class="cls-1" d="M529.81,293.88l.08,0-.1-.09c-9.19-51.12-83.55-112.86-174.79-115V165.84a5,5,0,0,0-10,0v12.87c-91.24,2.19-165.6,63.93-174.79,115l-.1.09.08,0c0,.14-.06.28-.08.42l.44-.31c38.14,11.88,48.86,15.54,81.5,35.24,32.67-2.18,61.88.47,92.95,7.38V460.86a3,3,0,0,0-3,3v44.81a14.51,14.51,0,0,1-15.22,14.47A14.76,14.76,0,0,1,313,508.25v-4.17a8,8,0,0,0-8-8h0a8,8,0,0,0-8,8V508c0,16.59,13,30.63,29.56,31.12A30.51,30.51,0,0,0,358,508.67V463.86a3,3,0,0,0-3-3h0V336.61c31.07-6.91,60.28-9.56,92.95-7.38,32.64-19.7,43.36-23.36,81.5-35.24l.44.31C529.87,294.16,529.84,294,529.81,293.88Z"/><path class="cls-2" d="M300,146.64a5,5,0,0,1-5-5v-25.8a5,5,0,0,1,10,0v25.8A5,5,0,0,1,300,146.64Z"/><path class="cls-3" d="M120.11,243.85c38.5,12,49.17,15.6,81.94,35.38l97.95-137C235.62,153.2,176.4,190.92,120.11,243.85Z"/><path class="cls-4" d="M202.05,279.23c34.42-2.3,65,.75,97.95,8.52V142.23C257,184.9,222.68,230.08,202.05,279.23Z"/><path class="cls-3" d="M479.89,243.85c-38.5,12-49.17,15.6-81.94,35.38L300,142.23C364.38,153.2,423.6,190.92,479.89,243.85Z"/><path class="cls-4" d="M398,279.23c-34.42-2.3-65,.75-97.95,8.52V142.23C341,185,374.62,230.31,398,279.23Z"/><rect class="cls-2" x="295" y="186.47" width="10" height="224.38"/><path class="cls-5" d="M300,128.64c-93.84,0-171,63.51-179.89,115.66C144,227.08,173.9,217,210.05,216.66h0Q226.68,164,300,128.64Z"/><path class="cls-5" d="M300,128.64c93.84,0,171,63.51,179.89,115.66C456,227.08,426.1,217,390,216.66h0Q373.32,164,300,128.64Z"/><path class="cls-6" d="M300,128.64q-73.32,35.31-89.95,88c36-10.32,58.77-12.45,89.95-7.12,31.18-5.33,53.93-3.2,89.95,7.12Q373.32,164,300,128.64Z"/><path class="cls-7" d="M276.59,489.14C260,488.65,247,474.61,247,458v-3.94a8,8,0,0,1,8-8h0a8,8,0,0,1,8,8v4.17a14.76,14.76,0,0,0,13.76,14.89A14.5,14.5,0,0,0,292,458.67V413.86a3,3,0,0,1,3-3h10a3,3,0,0,1,3,3v44.81A30.51,30.51,0,0,1,276.59,489.14Z"/></svg>