<svg xmlns="http://www.w3.org/2000/svg" xmlns:xlink="http://www.w3.org/1999/xlink" width="24px" height="24px" viewBox="0 0 24 24" version="1.1">
    <g id="surface1">
        <path style=" stroke:none;fill-rule:evenodd;fill:rgb(13.333333%,35.294118%,56.078431%);fill-opacity:1;" d="M 9.816406 0 C 15.242188 0 19.636719 4.394531 19.636719 9.816406 C 19.636719 11.972656 18.941406 13.964844 17.765625 15.585938 L 24 21.816406 L 21.816406 24 L 15.582031 17.765625 C 13.964844 18.941406 11.972656 19.636719 9.816406 19.636719 C 4.394531 19.636719 0 15.242188 0 9.816406 C 0 4.394531 4.394531 0 9.816406 0 Z M 9.816406 1.9375 C 14.167969 1.9375 17.695312 5.46875 17.695312 9.816406 C 17.695312 14.167969 14.167969 17.695312 9.816406 17.695312 C 5.46875 17.695312 1.9375 14.167969 1.9375 9.816406 C 1.9375 5.46875 5.46875 1.9375 9.816406 1.9375 Z M 9.816406 3.273438 L 9.816406 5.453125 C 12.226562 5.453125 14.183594 7.410156 14.183594 9.816406 L 16.363281 9.816406 C 16.363281 6.203125 13.433594 3.273438 9.816406 3.273438 Z M 9.816406 3.273438 "/>
    </g>
</svg>