<?xml version="1.0" encoding="UTF-8"?>
<svg width="22px" height="22px" viewBox="0 0 22 22" version="1.1" xmlns="http://www.w3.org/2000/svg" xmlns:xlink="http://www.w3.org/1999/xlink">
    <title>x-icon</title>
    <g id="Page-1" stroke="none" stroke-width="1" fill="none" fill-rule="evenodd">
        <g id="x-icon" fill="#49A5E6">
            <path d="M11,0 C17.0751367,0 22,4.92486328 22,11 C22,17.0751367 17.0751367,22 11,22 C4.92486328,22 0,17.0751367 0,11 C0,4.92486328 4.92486328,0 11,0 Z M9.48043482,6 L6,6 L10.1586056,11.4692182 L6.21723682,16 L7.90498816,16 L10.9470106,12.5040477 L13.6055106,16 L17,16 L12.664858,10.2359651 L16.3497539,6 L14.6631135,6 L11.883573,9.19534591 L9.48043482,6 Z M8.97263997,6.96210298 L15.0057842,14.984571 L14.0710902,14.984571 L7.96977543,6.96210298 L8.97263997,6.96210298 Z" id="Combined-Shape"></path>
        </g>
    </g>
</svg>