<?xml version="1.0" encoding="UTF-8"?>
<svg width="24px" height="24px" viewBox="0 0 24 24" version="1.1" xmlns="http://www.w3.org/2000/svg" xmlns:xlink="http://www.w3.org/1999/xlink">
    <title>Activities/Car-Plus</title>
    <g id="Activities/Car-Plus" stroke="none" stroke-width="1" fill="none" fill-rule="evenodd">
        <path d="M4.87191244,9.22297491 L6.16254992,4.92084997 L16.4876498,4.92084997 L17.7782873,9.22297491 L4.87191244,9.22297491 Z M5.73233743,14.3855248 C5.01956137,14.3855248 4.44169995,13.8077495 4.44169995,13.0949734 C4.44169995,12.3821113 5.01956137,11.8042499 5.73233743,11.8042499 C6.44519953,11.8042499 7.02297491,12.3821113 7.02297491,13.0949734 C7.02297491,13.763201 6.51516452,14.3127756 5.86430795,14.3788621 L5.73233743,14.3855248 Z M20.2102441,13.8534552 L20.2102441,16.6431251 L23,16.6431251 L23,18.0653216 L20.2102441,18.0653216 L20.2102441,20.8550775 L18.7880476,20.8550775 L18.7880476,18.0653216 L15.9982917,18.0653216 L16.5817458,16.6431251 L18.7880476,16.6431251 L18.7880476,13.8534552 L20.2102441,13.8534552 Z M4.92500066,3.2 L17.7886984,3.2 C17.871368,3.2 17.9568461,3.25214864 18.0026207,3.32380208 L18.028843,3.38068925 L19.7321403,9.22297491 L20.7108737,9.22297491 C21.1925704,9.22297491 21.5896166,9.58524324 21.6438798,10.0515096 L21.6501997,10.1608381 L21.6501997,11.1017129 C21.6501997,11.4920877 21.4113457,11.8395273 21.0713918,11.9870902 C20.5725174,11.8412481 20.045335,11.7614868 19.4991372,11.7614868 C16.4103836,11.7614868 13.9063748,14.2654095 13.9063748,17.3542492 C13.9063748,17.7220292 13.942609,18.0812188 14.0106721,18.4289984 L14.0676185,18.6876498 L5.64629493,18.6876498 L5.64629493,19.4692598 C5.64629493,19.9508766 5.31733778,20.347917 4.85589901,20.4021799 L4.74715082,20.4084997 L3.65871321,20.4084997 C3.17773564,20.4084997 2.78133434,20.0462314 2.72715955,19.5788628 L2.72084997,19.4692598 L2.72084997,12.0623774 L1.939412,12.0623774 C1.45763547,12.0623774 1.06058358,11.6804488 1.00631992,11.2113738 L1,11.1017129 L1,10.1608381 C1,9.67994048 1.36241671,9.28347069 1.82980656,9.22928571 L1.939412,9.22297491 L2.90523905,9.22297491 L4.6831352,3.37905444 C4.70729593,3.29996418 4.78195329,3.23282349 4.86336188,3.20913083 L4.92500066,3.2 L17.7886984,3.2 L4.92500066,3.2 Z" id="🎨-Change-color-here" fill="#1464A5"></path>
    </g>
</svg>