<svg id="Contenido" xmlns="http://www.w3.org/2000/svg" xmlns:xlink="http://www.w3.org/1999/xlink" viewBox="0 0 600 600"><defs><style>.cls-1{fill:url(#Degradado_sin_nombre);}.cls-2{fill:#1464a5;}.cls-3{fill:url(#Degradado_sin_nombre_2);}.cls-4{fill:#2dcccd;}.cls-5{fill:#f8cd51;}.cls-6{fill:none;}</style><linearGradient id="Degradado_sin_nombre" x1="279.9" y1="426.33" x2="442.22" y2="121.05" gradientTransform="matrix(1, 0, 0, -1, 0, 602)" gradientUnits="userSpaceOnUse"><stop offset="0" stop-color="#072146"/><stop offset="1" stop-color="#072146" stop-opacity="0"/></linearGradient><linearGradient id="Degradado_sin_nombre_2" x1="485.15" y1="4623.14" x2="266.24" y2="4623.14" gradientTransform="translate(0 -4304.9)" gradientUnits="userSpaceOnUse"><stop offset="0" stop-color="#043263" stop-opacity="0.5"/><stop offset="1" stop-color="#043263" stop-opacity="0"/></linearGradient></defs><path class="cls-1" d="M506.22,228.17A101.3,101.3,0,0,0,431.7,195.7,92.59,92.59,0,0,0,373.35,216a120,120,0,0,0-23.53,24.73A126.24,126.24,0,0,0,326.29,216a94,94,0,0,0-58.36-20.3,99.57,99.57,0,0,0-74.51,32.54c-18.91,20.76-29.53,48.9-29.53,79.57,0,31.33,11.77,60.22,36.92,90.69,22.6,27.23,54.89,54.91,92.34,86.74,12.68,10.84,27.2,23.29,42.44,36.45a22,22,0,0,0,28.82,0c15-13.19,29.53-25.61,42.44-36.45,37.39-32.06,69.9-59.51,92.34-86.74,25.15-30.44,36.92-59.28,36.92-90.89C535.75,277.08,525.36,248.93,506.22,228.17Z"/><path class="cls-2" d="M455.26,179.17a101.3,101.3,0,0,0-74.52-32.47A92.59,92.59,0,0,0,322.39,167a120,120,0,0,0-23.53,24.73A126.24,126.24,0,0,0,275.33,167,94,94,0,0,0,217,146.7a99.57,99.57,0,0,0-74.51,32.54C123.58,200,113,228.14,113,258.81c0,31.33,11.77,60.22,36.92,90.69,22.6,27.23,54.89,54.91,92.34,86.74,12.68,10.84,27.2,23.29,42.44,36.45a22,22,0,0,0,28.82,0c15-13.19,29.53-25.61,42.44-36.45,37.39-32.06,69.9-59.51,92.34-86.74,25.15-30.44,36.92-59.28,36.92-90.89C484.79,228.08,474.4,199.93,455.26,179.17Z"/><path class="cls-3" d="M428.15,158.41,266.24,456.86l18.39,15.83a22,22,0,0,0,28.82,0c15-13.19,29.53-25.61,42.44-36.45,37.39-32.06,69.9-59.51,92.34-86.74,25.15-30.44,36.92-59.28,36.92-90.89-.23-30.43-10.62-58.58-29.76-79.34A100.93,100.93,0,0,0,428.15,158.41Z"/><path class="cls-4" d="M461,171.46c-2.39-2.58-10.68,2.69-13.3.39l-.26.27L344.75,285.51l-43.57-38.79a10.51,10.51,0,0,0-14.51.53L227,308.65l-34.53-37.82a10.49,10.49,0,0,0-14.82-.68c-.12.1-.24.22-.35.33l-48.46,48.41A176.08,176.08,0,0,0,140,336.58a10.51,10.51,0,0,0,3-2.07l41.46-41.41L219,331a10.5,10.5,0,0,0,14.83.67,6.14,6.14,0,0,0,.45-.43l60.45-62.19,43.84,39a10.5,10.5,0,0,0,14.76-.8L462,187.32C459.92,184.49,463.44,174.06,461,171.46Z"/><path class="cls-4" d="M472.77,229.42a9.57,9.57,0,0,1-10-9.1h0l-2.14-47.05-47.05,2.14a9.55,9.55,0,0,1-.86-19.08l56.47-2.57a9.57,9.57,0,0,1,10,9.1h0l2.56,56.48A9.41,9.41,0,0,1,473,229.4Z"/><circle class="cls-5" cx="184.94" cy="280.97" r="15.93"/><circle class="cls-5" cx="226.88" cy="321.49" r="15.85"/><circle class="cls-5" cx="345.09" cy="298" r="15.49"/><circle class="cls-5" cx="295" cy="256.65" r="15.03"/><rect class="cls-6" width="600" height="600"/></svg>