<svg id="Contenido" xmlns="http://www.w3.org/2000/svg" xmlns:xlink="http://www.w3.org/1999/xlink" viewBox="0 0 600 600"><defs><style>.cls-1{fill:url(#Degradado_sin_nombre_10);}.cls-2{fill:#1464a5;}.cls-3{fill:url(#Degradado_sin_nombre_23);}.cls-4{fill:#2dcccd;}.cls-5{fill:#d4edfc;}.cls-6{fill:#c49735;}.cls-7{fill:none;stroke:#f8cd50;stroke-linecap:round;stroke-linejoin:round;stroke-width:16.67px;}</style><linearGradient id="Degradado_sin_nombre_10" x1="278.99" y1="200.75" x2="416.99" y2="460.29" gradientUnits="userSpaceOnUse"><stop offset="0" stop-color="#192647"/><stop offset="0" stop-color="#192647" stop-opacity="0.5"/><stop offset="1" stop-color="#192647" stop-opacity="0"/></linearGradient><linearGradient id="Degradado_sin_nombre_23" x1="453.54" y1="301.02" x2="247.68" y2="301.02" gradientUnits="userSpaceOnUse"><stop offset="0" stop-color="#043263" stop-opacity="0.3"/><stop offset="1" stop-color="#043263" stop-opacity="0.1"/></linearGradient></defs><title>self_driven</title><path class="cls-1" d="M198,330.76c0,10.4,1.22,13.29,3.42,23l31.14,5.75a117.94,117.94,0,0,0,13.29,32.08l-18,26.08c5.34,8.45,6.53,11.34,13.87,18.71l.35.34c7.37,7.35,10.26,8.54,18.7,13.87l26.08-17.95c1.71,1,3.48,1.95,5.24,2.88h0c1.88,1,3.8,1.95,5.73,2.85l1.42.65c1.67.75,3.35,1.48,5.07,2.15,1,.41,2.09.79,3.14,1.17,1.29.47,2.57,1,3.88,1.38,2.5.81,5,1.56,7.6,2.21l5.75,31.13c9.74,2.2,12.63,3.4,23,3.42h.49c10.4,0,13.29-1.22,23-3.42L377,446a118.26,118.26,0,0,0,32.08-13.29l26.08,17.95c8.45-5.33,11.34-6.52,18.71-13.87l.34-.34c7.34-7.37,8.53-10.26,13.87-18.71l-17.95-26.08a118.57,118.57,0,0,0,13.29-32.08l31.13-5.75c2.2-9.74,3.4-12.63,3.42-23v-.49c0-10.4-1.22-13.28-3.42-23l-31.13-5.75a118.64,118.64,0,0,0-13.29-32.07l17.95-26.09c-5.34-8.44-6.53-11.33-13.87-18.7l-.34-.35c-7.37-7.34-10.26-8.53-18.71-13.86l-26.08,18A117.94,117.94,0,0,0,377,215.08l-5.75-31.14c-9.74-2.2-12.63-3.4-23-3.42h-.49c-10.4,0-13.29,1.22-23,3.42L319,215.08a118.07,118.07,0,0,0-32.08,13.29l-26.08-18c-8.44,5.33-11.33,6.52-18.7,13.86l-.35.35c-7.34,7.37-8.53,10.26-13.87,18.7l18,26.09a118,118,0,0,0-13.29,32.07l-31.14,5.75c-2.2,9.75-3.4,12.63-3.42,23Z"/><path class="cls-2" d="M450.12,262.8,419,257.05A118.07,118.07,0,0,0,405.69,225l18-26.08c-5.34-8.45-6.53-11.34-13.87-18.7l-.35-.35c-7.37-7.34-10.26-8.53-18.7-13.87l-26.08,17.95a118.36,118.36,0,0,0-32.08-13.28l-5.75-31.14c-9.74-2.2-12.63-3.4-23-3.42h-.49c-10.4,0-13.29,1.22-23,3.42l-5.75,31.14a118.23,118.23,0,0,0-32.08,13.28L216.36,166c-8.45,5.34-11.34,6.53-18.71,13.87l-.34.35c-7.34,7.36-8.53,10.25-13.87,18.7L201.39,225a118.36,118.36,0,0,0-13.28,32.08L157,262.8c-2.2,9.74-3.4,12.63-3.42,23v.49c0,10.4,1.22,13.29,3.42,23l31.14,5.75a118.36,118.36,0,0,0,13.28,32.08l-17.95,26.08c5.34,8.45,6.53,11.34,13.87,18.7l.34.35c7.37,7.34,10.26,8.53,18.71,13.87l26.08-17.95a118.23,118.23,0,0,0,32.08,13.28l5.75,31.14c9.74,2.2,12.63,3.4,23,3.42h.49c10.4,0,13.29-1.22,23-3.42l5.75-31.14a118.36,118.36,0,0,0,32.08-13.28l26.08,17.95c8.44-5.34,11.33-6.53,18.7-13.87l.35-.35c7.34-7.36,8.53-10.25,13.87-18.7l-18-26.08A118.07,118.07,0,0,0,419,315.1l31.14-5.75c2.2-9.74,3.4-12.63,3.42-23v-.49C453.52,275.43,452.32,272.54,450.12,262.8Z"/><path class="cls-3" d="M419,257.05A118.07,118.07,0,0,0,405.69,225l18-26.08c-5.34-8.45-6.53-11.34-13.87-18.7l-.35-.35c-7.37-7.34-10.26-8.53-18.7-13.87l-26.08,17.95c-1.71-1-3.48-1.94-5.24-2.88L247.68,391.11a117.94,117.94,0,0,0,26.84,10.4l5.75,31.14c9.74,2.2,12.63,3.4,23,3.42h.49c10.4,0,13.29-1.22,23-3.42l5.75-31.14a118.36,118.36,0,0,0,32.08-13.28l26.08,17.95c8.44-5.34,11.33-6.53,18.7-13.87l.35-.35c7.34-7.36,8.53-10.25,13.87-18.7l-18-26.08A118.07,118.07,0,0,0,419,315.1l31.14-5.75c2.2-9.74,3.4-12.63,3.42-23v-.49c0-10.4-1.22-13.29-3.42-23Z"/><circle class="cls-4" cx="303.54" cy="286.08" r="52.17"/><circle class="cls-5" cx="303.54" cy="201.69" r="8.33"/><circle class="cls-5" cx="303.54" cy="370.46" r="8.33"/><circle class="cls-5" cx="387.93" cy="286.08" r="8.33"/><circle class="cls-5" cx="219.16" cy="286.08" r="8.33"/><circle class="cls-5" cx="261.35" cy="212.99" r="8.33"/><circle class="cls-5" cx="345.74" cy="359.16" r="8.33"/><circle class="cls-5" cx="376.63" cy="243.88" r="8.33"/><circle class="cls-5" cx="230.46" cy="328.27" r="8.33"/><circle class="cls-5" cx="230.46" cy="243.88" r="8.33"/><circle class="cls-5" cx="376.63" cy="328.27" r="8.33"/><circle class="cls-5" cx="345.74" cy="212.99" r="8.33"/><circle class="cls-5" cx="261.35" cy="359.16" r="8.33"/><polygon class="cls-6" points="311.88 286.07 295.21 286.07 295.21 217.97 311.88 227.81 311.88 286.07"/><line class="cls-7" x1="303.54" y1="286.08" x2="327.8" y2="301.81"/></svg>